<?xml version="1.0" standalone="no"?><!DOCTYPE svg PUBLIC "-//W3C//DTD SVG 1.1//EN" "http://www.w3.org/Graphics/SVG/1.1/DTD/svg11.dtd"><svg t="1553691364992" class="icon" style="" viewBox="0 0 1024 1024" version="1.1" xmlns="http://www.w3.org/2000/svg" p-id="1182" xmlns:xlink="http://www.w3.org/1999/xlink" width="200" height="200"><defs><style type="text/css"></style></defs><path d="M511.13154 971.581318m-52.418682 0a52.418682 52.418682 0 1 0 104.837364 0 52.418682 52.418682 0 1 0-104.837364 0Z" fill="#E3335B" p-id="1183"></path><path d="M917.376325 386.064641L557.784167 26.472483 546.776243 14.940373a48.749374 48.749374 0 0 0-70.241033 0L465.0031 26.472483 105.410942 386.064641a52.418682 52.418682 0 1 0 74.434528 73.910341L457.140297 180.583408v633.741864a52.418682 52.418682 0 0 0 104.837364 0V180.583408l279.391575 279.391574a52.418682 52.418682 0 1 0 73.910341-73.910341z" fill="#E3335B" p-id="1184"></path></svg>